<svg width="183" height="152" viewBox="0 0 183 152" fill="none" xmlns="http://www.w3.org/2000/svg">
<path d="M22.6822 131.59C22.2523 131.342 21.5519 131.355 20.5725 131.635C19.7498 131.871 18.9063 132.142 18.042 132.447C17.1647 132.758 16.3045 133.035 15.4611 133.278C14.9792 133.416 14.5129 133.541 14.0622 133.65L14.0482 133.654C13.881 133.694 13.7071 133.695 13.5395 133.657C13.372 133.618 13.2155 133.542 13.082 133.434C12.9485 133.325 12.8417 133.188 12.7697 133.031C12.6977 132.875 12.6625 132.704 12.6668 132.532L12.8093 126.416C12.8129 126.189 12.7987 125.963 12.7669 125.738C12.7268 125.4 12.7053 125.059 12.7025 124.718C12.6928 124.28 12.6763 123.726 12.6529 123.058C12.6294 122.389 12.6092 121.524 12.5922 120.463L12.6056 119.885L12.6425 118.274C12.668 117.152 12.7436 116.008 12.8693 114.842C12.9951 113.675 13.0719 112.499 13.0998 111.312C13.1283 110.144 13.0951 108.976 13.0003 107.812V107.878C12.9029 106.862 12.856 105.826 12.8596 104.77C12.8633 103.713 12.8768 102.661 12.9003 101.612C12.9085 101.279 12.9365 100.947 12.9839 100.618C13.0365 100.22 13.0661 99.8183 13.0724 99.4163C13.1028 98.0851 12.8669 97.1303 12.3648 96.552C11.8602 95.9739 10.8803 95.6298 9.40187 95.5186C9.37276 95.5186 9.34124 95.5156 9.31455 95.515L7.10237 95.4992C6.6981 95.4959 6.28958 95.5052 5.87682 95.5271C5.46406 95.549 5.02483 95.5583 4.55911 95.5551C3.24017 95.546 2.26871 95.8785 1.66109 96.5556C1.01264 97.3168 0.601629 98.2521 0.479176 99.2455C0.297177 100.513 0.244757 101.797 0.322726 103.075C0.392665 104.51 0.425628 105.964 0.421585 107.437L0.37247 127.071C0.37247 127.622 0.394471 128.154 0.438537 128.67C0.482603 129.185 0.504641 129.714 0.504641 130.257C0.501288 131.434 0.416611 132.608 0.251181 133.773C0.0862891 134.927 0.00239794 136.092 0.000126981 137.259C-0.00229865 138.502 0.0300268 139.696 0.0971361 140.84C0.164245 141.985 0.196195 143.119 0.192961 144.244L0.188704 146.06C0.188704 146.789 0.514946 147.179 1.16805 147.223C2.1081 147.21 3.037 147.017 3.90418 146.653L9.13445 144.768C10.2046 144.383 11.2759 144.036 12.3484 143.728C13.4028 143.425 14.4597 143.081 15.5193 142.698C16.454 142.36 17.3679 141.992 18.2609 141.593C19.1422 141.201 20.0195 140.811 20.8927 140.425C21.4405 140.201 21.9402 139.875 22.3644 139.462C22.7005 139.009 22.8973 138.468 22.9303 137.905C23.0875 136.399 23.1985 134.865 23.2632 133.303C23.3004 132.406 23.1063 131.834 22.681 131.587" fill="#FFCC00"/>
<path d="M33.4254 115.689C33.6057 116.391 33.817 117.158 34.0591 117.99C34.3587 119.022 34.6253 119.95 34.859 120.775L35.2956 122.462C35.3008 122.482 35.3045 122.502 35.3065 122.523C35.3265 122.708 35.3544 122.909 35.3908 123.121C35.3931 123.21 35.4217 123.296 35.4727 123.368C35.5238 123.44 35.5951 123.496 35.6776 123.528C35.8915 123.691 36.1494 123.787 36.4181 123.802C36.7749 123.844 37.1339 123.865 37.4932 123.863C37.8853 123.863 38.277 123.838 38.666 123.788L39.6999 123.657C40.1988 123.593 40.7244 123.502 41.2766 123.382C41.687 123.317 42.0815 123.175 42.4397 122.964C42.7978 122.811 43.138 122.618 43.4542 122.391C43.55 122.31 43.6229 122.205 43.6655 122.087C43.7081 121.969 43.7189 121.842 43.6968 121.719C43.6585 121.4 43.5517 121.093 43.3839 120.82L43.2074 120.398C43.0661 120.134 42.9418 119.861 42.835 119.581C42.7336 119.315 42.624 119.04 42.5064 118.758L37.6969 107.066L35.227 100.897C35.0653 100.484 34.9415 100.15 34.8553 99.8942C34.7692 99.6381 34.6829 99.3821 34.5964 99.1264C34.5099 98.8707 34.4436 98.6622 34.3975 98.5009C34.0523 97.4765 33.6429 96.4096 33.1695 95.3005C32.6961 94.1913 32.2252 93.1138 31.7566 92.0678C31.5102 91.5555 31.2977 91.0276 31.1204 90.4874C30.9821 90.0383 30.7709 89.6152 30.4952 89.2351C30.2224 88.8758 29.8386 88.6172 29.4037 88.4996C28.7513 88.3549 28.0763 88.344 27.4195 88.4674C26.6326 88.5648 25.8516 88.7052 25.08 88.888C24.628 88.9826 24.2031 89.1786 23.8375 89.4613C23.5564 89.7129 23.3637 90.0486 23.2881 90.4187C23.1757 90.9378 23.0892 91.4622 23.0291 91.99C22.8252 93.1492 22.6805 94.318 22.5956 95.492C22.5111 96.6506 22.3809 97.7895 22.205 98.9088C22.205 98.9216 22.2002 98.9343 22.1977 98.9477L21.8655 100.374L21.3664 102.709C21.3621 102.729 21.3593 102.75 21.3579 102.77C21.311 103.431 21.2429 104.095 21.1536 104.761C21.0608 105.447 20.9335 106.129 20.7721 106.803L19.0341 116.9C19.0299 116.925 19.0279 116.95 19.0281 116.975C19.0216 117.672 18.9654 118.366 18.8601 119.054C18.7493 119.819 18.6885 120.591 18.6782 121.364C18.6777 121.398 18.6735 121.432 18.6654 121.465C18.5498 121.948 18.4572 122.328 18.3877 122.606C18.3292 122.82 18.2866 123.039 18.2603 123.26C18.247 123.409 18.2385 123.533 18.2348 123.632C18.2313 123.746 18.2364 123.86 18.25 123.973C18.2079 124.2 18.2036 124.433 18.2373 124.661C18.2563 124.875 18.3178 125.082 18.4181 125.272C18.5184 125.461 18.6555 125.628 18.8213 125.763C19.1449 126.042 19.5644 126.182 19.9898 126.154C20.4137 126.105 20.8408 126.091 21.2669 126.114C21.7372 126.136 22.2085 126.117 22.6756 126.058C23.351 125.971 24.0035 125.755 24.5979 125.422C24.8859 125.273 25.1391 125.065 25.3409 124.81C25.5427 124.556 25.6886 124.262 25.7689 123.948L26.7998 116.969L26.8756 116.473C26.8907 116.369 26.9401 116.273 27.0159 116.2C27.0917 116.128 27.1896 116.082 27.294 116.071C27.7259 116.032 28.1599 116.023 28.5929 116.045C29.2073 116.069 29.8225 116.04 30.4316 115.955C30.7921 115.906 31.1493 115.835 31.5013 115.743C31.8089 115.664 32.2449 115.533 32.8093 115.349C32.871 115.33 32.936 115.323 33.0005 115.329C33.065 115.335 33.1275 115.354 33.1842 115.386C33.241 115.417 33.2908 115.46 33.3306 115.511C33.3704 115.562 33.3993 115.621 33.4157 115.684L33.4254 115.689ZM30.0756 108.212L28.1085 108.471C28.0403 108.48 27.971 108.474 27.9054 108.453C27.8398 108.432 27.7795 108.398 27.7286 108.352C27.6776 108.305 27.6374 108.249 27.6105 108.185C27.5836 108.122 27.5708 108.053 27.573 107.984L27.7719 102.081C27.7768 101.974 27.818 101.871 27.8887 101.79C27.9594 101.709 28.0553 101.655 28.1609 101.635C28.2666 101.616 28.3756 101.633 28.4701 101.684C28.5647 101.735 28.6392 101.817 28.6815 101.916L28.69 101.937C28.973 102.649 29.2357 103.38 29.4783 104.13C29.7208 104.881 29.9386 105.608 30.1314 106.313C30.2636 106.8 30.3772 107.24 30.4722 107.634C30.4876 107.698 30.4893 107.765 30.4771 107.831C30.4649 107.896 30.439 107.958 30.4012 108.013C30.3634 108.068 30.3146 108.114 30.2579 108.148C30.2012 108.183 30.1378 108.205 30.072 108.213" fill="#FFCC00"/>
<path d="M64.707 88.8564C64.6864 88.6331 64.6662 88.4102 64.6464 88.1877C64.5904 87.6598 64.5673 87.1289 64.5773 86.5981C64.5917 86.1569 64.5769 85.7153 64.533 85.276C64.4754 84.6723 64.3769 84.0732 64.2383 83.4828C64.1041 82.9279 63.9137 82.3881 63.6701 81.8719C63.6258 81.7801 63.5532 81.7049 63.463 81.6577C63.3728 81.6104 63.2697 81.5934 63.1692 81.6093C62.5285 81.7046 61.8824 81.7576 61.2348 81.768C60.4876 81.7799 59.7424 81.8484 59.0056 81.9729C58.1922 82.1102 57.398 82.2669 56.623 82.4427C55.8481 82.6186 55.0716 82.7722 54.2938 82.9035C53.2478 83.0822 52.1912 83.1919 51.1308 83.2317C50.0549 83.2739 48.9829 83.3864 47.9217 83.5685C47.1455 83.6994 46.3636 83.8538 45.5761 84.0317C44.7886 84.2096 44.029 84.4058 43.2972 84.6201L41.0462 85.2037C40.749 85.2779 40.4729 85.4198 40.2392 85.6183C40.0055 85.8168 39.8206 86.0666 39.6988 86.3483C39.45 86.9841 39.3264 87.6622 39.3349 88.3452C39.3288 89.164 39.3844 89.982 39.5011 90.7925C39.6184 91.6435 39.7123 92.4207 39.7831 93.1243C39.7848 93.141 39.7874 93.1576 39.7909 93.1741L40.2597 95.3673C40.2862 95.4893 40.3595 95.5959 40.4638 95.6641C40.5681 95.7324 40.6949 95.7568 40.817 95.732L47.4311 94.3984C47.499 94.3848 47.5691 94.3862 47.6364 94.4027C47.7037 94.4191 47.7666 94.4501 47.8207 94.4935C47.8747 94.5369 47.9187 94.5916 47.9495 94.6538C47.9802 94.716 47.997 94.7842 47.9987 94.8537C48.0173 95.5462 48.0442 96.209 48.0794 96.842C48.1279 97.6759 48.2412 98.5047 48.4183 99.3209C48.4227 99.3409 48.4255 99.3612 48.4268 99.3817L48.6445 102.664C48.6454 102.678 48.647 102.692 48.6494 102.706C48.8309 103.881 49.0128 105.056 49.1951 106.231C49.3775 107.406 49.5116 108.616 49.5978 109.86C49.7345 111.265 49.7953 112.676 49.7797 114.087C49.7598 115.406 49.8112 116.725 49.9338 118.038L50.4795 123.685C50.5814 124.734 50.6695 125.817 50.7439 126.935C50.8177 128.041 50.809 129.15 50.7178 130.254C50.7156 130.28 50.7112 130.306 50.7045 130.331C50.5899 130.757 50.5517 131.199 50.5917 131.638C50.5944 131.801 50.6315 131.961 50.7003 132.108C50.7691 132.255 50.8682 132.385 50.991 132.491C51.1138 132.597 51.2576 132.675 51.4128 132.722C51.5681 132.768 51.7313 132.78 51.8918 132.759C53.0468 132.733 54.198 132.619 55.3356 132.417C56.0027 132.313 56.6515 132.189 57.2822 132.045C57.9249 131.897 58.5519 131.688 59.1548 131.42C59.5118 131.297 59.82 131.063 60.0335 130.751C60.2261 130.453 60.3504 130.116 60.3973 129.764C60.4479 129.377 60.4536 128.986 60.4143 128.598C60.3739 128.184 60.3316 127.736 60.2876 127.255L60.0335 124.565L59.9279 123.449C59.861 122.782 59.7557 122.12 59.6126 121.465C59.4551 120.723 59.3413 119.972 59.2718 119.216C59.2554 119.051 59.2484 118.884 59.2506 118.718C59.2525 118.552 59.2453 118.385 59.2294 118.22L59.1245 116.031C59.0372 114.751 58.9492 113.369 58.8607 111.884C58.7721 110.4 58.6788 108.869 58.5806 107.293C58.4831 105.716 58.3675 104.129 58.2337 102.532C58.0999 100.934 57.9471 99.4054 57.7752 97.9453C57.7325 97.4795 57.6631 97.0166 57.5672 96.5587C57.4718 96.0986 57.4192 95.6305 57.4102 95.1606L57.395 93.185C57.3935 93.0775 57.4288 92.9727 57.495 92.8881C57.5612 92.8035 57.6543 92.7442 57.7588 92.72C58.1347 92.6418 58.4993 92.5162 58.8437 92.3462C59.2858 92.1296 59.7585 91.9824 60.2451 91.9097L60.9806 91.7882C61.2429 91.7457 61.5082 91.7243 61.7739 91.7243C62.3853 91.6387 62.9659 91.402 63.4634 91.0356C63.9145 90.6778 64.3314 90.2787 64.7089 89.8436C64.7606 89.7853 64.7971 89.7152 64.8153 89.6394C64.8335 89.5635 64.8328 89.4844 64.8132 89.4089C64.762 89.228 64.7265 89.0429 64.707 88.8558" fill="#FFCC00"/>
<path d="M79.9916 81.6636C79.7895 80.4478 79.3179 79.6779 78.5769 79.3537C77.8359 79.0295 76.5644 78.9044 74.7626 78.9786C73.4646 78.9569 72.1788 79.232 71.0028 79.7828C70.1781 80.2525 69.7601 81.1643 69.7487 82.5183C69.7447 82.9993 69.7686 83.6527 69.8203 84.4786C69.8721 85.3045 69.8953 86.0009 69.89 86.5679L69.6645 92.4454V92.3804C69.5715 94.1197 69.4983 95.8669 69.4449 97.622C69.3916 99.3772 69.3574 101.118 69.3425 102.844C69.3251 104.914 69.3368 106.938 69.3776 108.916C69.4185 110.894 69.4306 112.869 69.414 114.84C69.4079 115.569 69.3734 116.255 69.3097 116.9C69.246 117.544 69.2115 118.208 69.2061 118.893C69.2 119.622 69.222 120.423 69.2722 121.295C69.3195 122.109 69.392 122.876 69.4898 123.595C69.5042 123.7 69.5121 123.806 69.5135 123.913L69.5177 124.305C69.5246 124.977 69.7889 125.621 70.2559 126.104C70.723 126.586 71.357 126.87 72.0271 126.897L72.5795 126.921C73.7171 126.972 74.73 127.027 75.6182 127.086L76.5132 127.123C77.0855 127.15 77.6506 126.986 78.1205 126.658C78.5904 126.329 78.9387 125.854 79.1111 125.306L79.1172 125.286C79.3134 124.65 79.4187 123.988 79.4301 123.322C79.4374 122.829 79.3943 122.336 79.3015 121.851C79.2147 121.43 79.171 121.002 79.1712 120.572C79.1813 119.672 79.2217 118.729 79.2924 117.741C79.3632 116.753 79.4022 115.893 79.4094 115.163L79.4385 112.584C79.4539 111.251 79.4887 109.915 79.5428 108.577C79.5942 107.329 79.709 106.083 79.8867 104.847C79.9136 104.69 79.9231 104.531 79.9152 104.372C79.9102 104.237 79.9204 104.101 79.9455 103.968C79.9874 103.707 80.031 103.307 80.0765 102.764C80.122 102.221 80.1493 101.475 80.1608 100.523C80.1723 99.5703 80.1662 98.3345 80.145 96.8148C79.9958 92.7384 79.9841 89.498 80.1099 87.0937C80.2519 85.2831 80.2137 83.4629 79.9959 81.6599" fill="#FFCC00"/>
<path d="M81.6524 31.9815C80.4099 31.6369 79.1185 31.5037 77.832 31.5876C76.533 31.5402 75.2367 31.7397 74.0116 32.1754C73.5853 32.3719 73.2263 32.6901 72.9796 33.0902C72.7329 33.4902 72.6095 33.9544 72.6248 34.4245C72.5985 34.8241 72.5924 35.3677 72.6066 36.0554C72.6207 36.7432 72.612 37.3225 72.5805 37.7934L72.0845 42.6752L72.0881 42.6211C71.9147 44.065 71.761 45.516 71.6272 46.9741C71.4934 48.4321 71.3792 49.8785 71.2846 51.313C71.1722 53.0341 71.0914 54.7173 71.0421 56.3626C70.9927 58.0079 70.9145 59.6492 70.8073 61.2864C70.7715 61.8596 70.7049 62.4304 70.6078 62.9964C70.5131 63.544 70.4479 64.0963 70.4126 64.651C70.3721 65.256 70.3576 65.922 70.369 66.649C70.3791 67.3112 70.4152 67.9359 70.4775 68.5231C70.4902 68.6394 70.4943 68.7564 70.4896 68.8733C70.4625 69.4999 70.6828 70.112 71.1028 70.5769C71.5227 71.0418 72.1086 71.3221 72.7333 71.357L73.4343 71.3965C74.576 71.4638 75.5923 71.5315 76.4833 71.5996L77.7428 71.6689C78.224 71.6972 78.7023 71.5778 79.1141 71.3266C79.5258 71.0754 79.8513 70.7043 80.0472 70.2629C80.06 70.2349 80.0714 70.2069 80.0836 70.1784C80.3076 69.6626 80.4443 69.1131 80.488 68.5523C80.5183 68.1429 80.498 67.7312 80.4274 67.3268C80.3592 66.9756 80.3348 66.6173 80.3546 66.26C80.406 65.5123 80.4891 64.7288 80.6039 63.9094C80.7187 63.09 80.7972 62.3763 80.8392 61.7684L80.9871 59.6251C81.0631 58.5167 81.1592 57.407 81.2752 56.2958C81.3831 55.2695 81.5524 54.2507 81.7821 53.2449C81.817 53.0864 81.8372 52.925 81.8428 52.7628C81.8498 52.6646 81.8663 52.5673 81.8919 52.4723C81.9459 52.2565 82.0083 51.9252 82.0787 51.4741C82.149 51.0231 82.2115 50.4043 82.266 49.6122C82.3206 48.8202 82.3716 47.7941 82.4201 46.5321C82.4194 43.832 82.5564 41.1335 82.8306 38.4474C83.0562 36.9516 83.1012 35.4339 82.9647 33.9273C82.9495 33.5112 82.818 33.1079 82.5851 32.7632C82.3522 32.4185 82.0273 32.1463 81.6476 31.9778" fill="#FFCC00"/>
<path d="M119.526 79.0053C119.082 78.8544 118.626 78.7437 118.162 78.6746C117.697 78.6104 117.229 78.58 116.76 78.5834C116.21 78.5868 115.662 78.6517 115.127 78.7767C114.592 78.9018 114.045 78.9666 113.496 78.97C113.079 78.9741 112.662 78.955 112.247 78.9129C111.833 78.8699 111.416 78.8496 110.999 78.8521C110.526 78.8626 110.062 78.9756 109.637 79.1834C109.4 79.307 109.203 79.4962 109.07 79.7285C108.938 79.9609 108.874 80.2265 108.888 80.4939L108.808 81.8312C108.717 83.2169 108.799 84.6084 109.05 85.9739C109.298 87.3136 109.379 88.679 109.293 90.0387L109.201 91.5803L109.146 92.4921L108.899 96.6171L108.749 99.1295C108.728 99.4938 108.675 99.8556 108.592 100.211C108.51 100.566 108.458 100.928 108.437 101.292C108.309 103.206 108.434 105.129 108.808 107.011C108.815 107.041 108.818 107.073 108.817 107.105C108.817 107.183 108.817 107.342 108.817 107.582C108.817 107.886 108.83 108.206 108.85 108.555C108.87 108.903 108.88 109.223 108.882 109.527C108.885 109.831 108.882 110.001 108.882 110.047L106.131 100.42C106.128 100.408 106.124 100.397 106.119 100.385C105.703 99.279 105.296 98.1607 104.9 97.0305C104.505 95.9002 104.057 94.7518 103.556 93.5851L103.552 93.655L102.996 91.942C102.989 91.9227 102.981 91.9039 102.973 91.8855C102.255 90.4086 101.618 88.8933 101.066 87.3465C100.513 85.8035 100.056 84.2275 99.6987 82.6276L99.7066 82.4871C99.7273 82.0776 99.7202 81.6672 99.6854 81.2586C99.6528 80.8286 99.5648 80.4046 99.4234 79.9973C99.3028 79.6326 99.1041 79.2988 98.8413 79.0192C98.7131 78.8913 98.5596 78.7917 98.3908 78.7269C98.2219 78.6621 98.0413 78.6335 97.8607 78.643C97.5138 78.6512 97.1676 78.6784 96.8237 78.7244C96.48 78.7707 96.1341 78.7977 95.7874 78.8053L91.9852 78.8454H91.9434C90.6566 78.9544 89.8019 79.2085 89.3795 79.6077C88.957 80.0068 88.6709 80.8157 88.5214 82.0343C88.1038 86.0057 87.6914 89.8961 87.2843 93.7054C86.8772 97.5111 86.5702 101.331 86.3632 105.164L86.2553 107.17C86.1877 108.415 86.103 109.612 86.0011 110.763C85.8993 111.914 85.816 113.086 85.7513 114.28C85.7315 114.648 85.6911 115.222 85.63 116.002C85.569 116.782 85.4956 117.584 85.4099 118.409C85.325 119.234 85.2534 120.002 85.1952 120.711C85.1394 121.387 85.0869 121.844 85.0376 122.083C85.0323 122.107 85.029 122.132 85.0279 122.156C84.9724 123.309 84.9998 124.465 85.1097 125.614C85.2108 126.721 85.3369 127.809 85.4881 128.878C85.5028 128.979 85.5494 129.073 85.6211 129.145C85.6928 129.218 85.7858 129.266 85.8865 129.281L86.0442 129.308C86.2245 129.342 86.4068 129.364 86.59 129.374C86.6428 129.376 86.6949 129.387 86.744 129.406C87.139 129.549 87.55 129.642 87.9677 129.682C88.5216 129.75 89.1169 129.796 89.7537 129.819C90.3904 129.841 91.0285 129.841 91.6681 129.819C92.3072 129.795 92.8469 129.784 93.2865 129.784C93.8058 129.796 94.3131 129.626 94.7207 129.304C95.1278 128.973 95.4667 128.565 95.7182 128.104C95.9896 127.612 96.1817 127.079 96.2876 126.527C96.3959 125.996 96.447 125.455 96.4399 124.914L96.6163 118.656C96.6414 117.508 96.6665 116.186 96.6915 114.691C96.7166 113.196 96.733 111.676 96.7407 110.132C96.7475 108.587 96.7423 107.087 96.7249 105.634C96.7249 105.485 96.7229 105.338 96.7188 105.194C96.7171 105.08 96.7564 104.969 96.8297 104.881C96.903 104.794 97.0054 104.736 97.118 104.718C97.2305 104.7 97.3457 104.723 97.4425 104.784C97.5393 104.844 97.6111 104.937 97.6448 105.047L97.6866 105.178C97.9612 106.013 98.1641 106.87 98.293 107.739C98.4249 108.622 98.7344 109.469 99.2027 110.228C99.8181 111.273 100.34 112.37 100.762 113.507C101.186 114.657 101.54 115.832 101.824 117.025C102.114 118.244 102.383 119.484 102.629 120.746C102.876 122.008 103.161 123.304 103.485 124.633C103.618 125.153 103.718 125.68 103.783 126.213C103.845 126.737 103.956 127.255 104.113 127.758C104.249 128.216 104.519 128.622 104.887 128.925C105.383 129.261 105.978 129.418 106.575 129.371C106.992 129.54 107.435 129.633 107.883 129.645C108.483 129.689 109.134 129.712 109.837 129.712C110.54 129.713 111.244 129.701 111.949 129.677C112.654 129.653 113.269 129.641 113.792 129.642C114.879 129.642 115.604 129.481 115.966 129.16C116.329 128.838 116.544 128.127 116.613 127.026C116.641 126.568 116.659 126.12 116.666 125.683C116.673 125.246 116.691 124.798 116.719 124.339L116.883 121.717C116.932 120.934 116.997 120.22 117.078 119.575C117.159 118.929 117.252 118.249 117.357 117.534C117.462 116.819 117.562 116.034 117.656 115.179C117.749 114.324 117.834 113.295 117.91 112.093L117.822 112.385C117.904 112.014 117.961 111.638 117.992 111.26C118.056 110.566 118.103 109.964 118.135 109.454C118.158 109.084 118.185 108.643 118.218 108.133C118.248 107.7 118.256 107.266 118.241 106.833C118.241 106.818 118.241 106.803 118.241 106.788C118.362 104.845 118.547 102.854 118.797 100.814C119.046 98.7749 119.234 96.7509 119.36 94.7424C119.36 94.7333 119.36 94.7242 119.36 94.7151C119.396 90.2375 119.558 85.7018 119.845 81.1079C119.845 81.0988 119.845 81.0896 119.845 81.0805V79.4563C119.845 79.3565 119.814 79.2592 119.756 79.1781C119.698 79.097 119.616 79.0363 119.522 79.0046" fill="#FFCC00"/>
<path d="M144.813 118.335C145.145 117.939 145.539 117.6 145.979 117.331C146.042 117.292 146.102 117.251 146.161 117.206C147.287 116.358 148.238 115.298 148.96 114.085C149.642 112.913 150.176 111.66 150.548 110.355C150.92 109.042 151.216 107.708 151.433 106.359C151.653 104.997 151.931 103.669 152.268 102.377L152.283 102.166L152.089 100.131C152.082 100.042 152.069 99.9547 152.052 99.868C151.977 99.5423 151.881 99.2217 151.766 98.9082C151.596 98.3868 151.521 97.8388 151.545 97.2906C151.559 95.4138 151.179 93.5549 150.428 91.8356C149.584 90.0119 148.347 88.3992 146.805 87.1142H146.857C146.463 86.7876 146.01 86.433 145.499 86.0505C144.988 85.6679 144.443 85.2852 143.862 84.9022C143.281 84.5184 142.681 84.1612 142.063 83.8305C141.479 83.5133 140.858 83.2693 140.214 83.1041H140.266C139.234 82.8714 138.18 82.7451 137.122 82.7272C136.325 82.7133 135.528 82.7881 134.747 82.9503C133.945 83.1192 133.179 83.4292 132.485 83.8658H132.536L131.748 84.2852C131.63 84.3485 131.518 84.4213 131.412 84.5028C131.26 84.6195 131.122 84.7164 131.001 84.7934C130.892 84.8643 130.776 84.9222 130.654 84.966L130.249 85.1453C129.775 85.3855 129.325 85.672 128.907 86.0006C128.472 86.3422 128.09 86.7454 127.772 87.1975C127.466 87.6378 127.195 88.1014 126.961 88.5841C126.734 89.0526 126.505 89.5524 126.274 90.0837C126.253 90.1311 126.233 90.1804 126.213 90.229L125.619 91.8326C125.285 92.7752 124.929 93.6637 124.552 94.4981C124.127 95.5152 123.862 96.5915 123.763 97.6894C123.678 98.9815 123.452 100.26 123.089 101.503C122.72 102.777 122.492 104.087 122.41 105.411C122.384 105.828 122.367 106.237 122.359 106.637C122.353 106.93 122.389 107.223 122.466 107.506C122.528 107.739 122.556 107.98 122.549 108.221C122.523 109.334 122.649 110.445 122.923 111.523C123.587 114.151 125.031 116.515 127.065 118.303C128.153 119.263 129.401 120.024 130.752 120.552C131.63 120.963 132.54 121.299 133.474 121.559C134.424 121.825 135.403 121.974 136.389 122.001C137.657 122.034 138.921 121.84 140.122 121.428C141.307 121.035 142.411 120.431 143.382 119.645C143.906 119.262 144.386 118.821 144.813 118.33L144.813 118.335ZM142.744 104.847C142.643 105.636 142.483 106.539 142.265 107.556C142.016 108.722 141.608 109.848 141.052 110.903C140.521 111.923 139.794 112.828 138.912 113.565C137.976 114.31 136.796 114.679 135.603 114.599C134.921 114.625 134.253 114.405 133.72 113.977C133.273 113.569 132.929 113.06 132.715 112.493C132.464 111.834 132.294 111.147 132.208 110.447C132.115 109.752 132.001 109.043 131.867 108.319C131.839 108.167 131.824 108.012 131.823 107.857L131.805 104.575C131.805 104.514 131.805 104.45 131.81 104.386L131.986 101.712C131.996 101.59 132.015 101.47 132.043 101.351C132.062 101.253 132.075 101.153 132.081 101.053C132.093 100.861 132.104 100.695 132.113 100.554L132.174 99.662C132.24 98.8577 132.37 98.0601 132.562 97.2767C132.772 96.368 133.072 95.4827 133.459 94.6342C133.804 93.8502 134.289 93.1356 134.89 92.5249C135.154 92.2506 135.473 92.0349 135.825 91.8918C136.178 91.7487 136.557 91.6813 136.937 91.694C137.127 91.6998 137.316 91.7214 137.502 91.7584H137.508C137.873 91.8299 138.219 91.9794 138.521 92.1967C138.664 92.2996 138.817 92.41 138.977 92.528C139.344 92.7992 139.696 93.0889 140.033 93.396L140.036 93.3431C140.608 93.8654 141.059 94.5061 141.359 95.2208C141.659 95.9466 141.876 96.7042 142.006 97.4791C142.141 98.2753 142.233 99.0783 142.281 99.8844C142.328 100.695 142.395 101.469 142.482 102.205L142.744 104.138C142.775 104.374 142.775 104.612 142.744 104.848" fill="#FFCC00"/>
<path d="M182 93.9474C181.322 93.5201 180.587 93.1916 179.817 92.9718C178.928 92.7036 178.025 92.4838 177.113 92.3134C176.175 92.1375 175.395 92.0016 174.772 91.9055C173.55 91.7224 172.314 91.6578 171.081 91.7128C169.806 91.7633 168.54 91.9293 167.295 92.2089C166.081 92.4794 164.898 92.8783 163.767 93.3991C162.702 93.8816 161.72 94.5299 160.857 95.32C159.914 96.2763 159.026 97.2849 158.196 98.3411C157.425 99.3361 156.78 100.423 156.276 101.576C155.511 103.332 155.149 105.238 155.216 107.153C155.268 109.255 155.923 111.298 157.101 113.038C157.108 113.049 157.117 113.06 157.125 113.071C157.593 113.691 158.025 114.26 158.422 114.779C158.827 115.305 159.318 115.909 159.897 116.589L161.786 119.061C161.801 119.082 161.819 119.101 161.839 119.118C162.521 119.741 163.056 120.51 163.403 121.367C163.847 122.634 163.98 123.989 163.793 125.318C163.736 125.807 163.505 126.259 163.143 126.591C162.762 126.952 162.307 127.226 161.809 127.394C161.285 127.574 160.74 127.687 160.187 127.731C159.683 127.782 159.173 127.744 158.682 127.617C158.22 127.491 157.785 127.281 157.399 126.997L155.673 125.912L152.85 124.036C152.73 123.945 152.593 123.879 152.448 123.843L151.954 123.708C151.724 123.632 151.48 123.607 151.24 123.635C150.999 123.662 150.767 123.742 150.56 123.867C150.104 124.174 149.71 124.565 149.4 125.019C149.022 125.54 148.631 126.119 148.227 126.755C147.818 127.399 147.353 128.005 146.837 128.566L145.72 129.868C145.251 130.409 144.852 131.006 144.532 131.646C144.388 131.951 144.327 132.288 144.354 132.624C144.381 132.96 144.496 133.282 144.687 133.559C145.084 134.172 145.57 134.721 146.128 135.191C146.636 135.63 147.193 136.008 147.788 136.319C148.111 136.481 148.33 136.593 148.443 136.656C148.498 136.685 148.546 136.726 148.583 136.774C149.225 137.631 150.009 138.37 150.901 138.96C151.715 139.468 152.494 139.913 153.239 140.297C154.037 140.756 154.877 141.139 155.748 141.439C156.961 141.849 158.231 142.067 159.512 142.084C160.72 142.09 161.926 141.998 163.119 141.809C163.665 141.731 164.207 141.621 164.74 141.479C165.487 141.294 166.201 141.133 166.882 140.998L168.175 140.671L169.999 140.148C171.534 139.771 172.878 138.842 173.775 137.537C174.426 136.68 175.008 135.772 175.517 134.823C176.025 133.885 176.466 132.913 176.836 131.912C177.142 131.111 177.391 130.289 177.579 129.452C178.18 126.968 178.235 124.384 177.742 121.876C177.248 119.369 176.218 116.999 174.722 114.93C174.711 114.914 174.699 114.9 174.687 114.885L171.54 111.23C171.219 110.848 170.921 110.474 170.646 110.105C170.371 109.737 170.079 109.37 169.771 109.004L169.831 109.017C169.312 108.478 168.847 107.889 168.443 107.259C168.145 106.787 167.907 106.28 167.737 105.748C167.596 105.295 167.498 104.829 167.445 104.357C167.395 103.915 167.359 103.441 167.337 102.935C167.337 102.924 167.337 102.913 167.337 102.901L167.357 101.59C167.357 101.52 167.373 101.45 167.403 101.386C167.604 100.974 167.92 100.63 168.312 100.396C168.767 100.118 169.265 99.9194 169.785 99.8067C170.348 99.6834 170.923 99.6222 171.499 99.6243C172.062 99.6196 172.623 99.6653 173.178 99.7611C173.362 99.7943 173.544 99.8364 173.723 99.8875C173.959 99.9552 174.191 100.036 174.418 100.131C174.68 100.235 174.948 100.321 175.222 100.388C175.707 100.512 176.185 100.661 176.654 100.833L178.322 101.38C178.404 101.407 178.492 101.411 178.576 101.392C178.66 101.372 178.738 101.33 178.8 101.27C181.009 99.1313 182.303 97.1314 182.724 95.2689C182.833 94.7826 182.589 94.3449 181.996 93.9547" fill="#FFCC00"/>
<path d="M45.7129 137.373L41.972 137.849C41.8289 137.867 41.6836 137.85 41.5485 137.8C41.4134 137.749 41.2925 137.666 41.1964 137.559L38.6841 134.739C38.5737 134.615 38.4307 134.524 38.2715 134.477C38.1124 134.43 37.9432 134.429 37.7832 134.473C37.6232 134.517 37.4788 134.605 37.3662 134.728C37.2537 134.85 37.1775 135.001 37.1462 135.165L36.4422 138.878C36.4153 139.02 36.3543 139.154 36.2645 139.267C36.1747 139.38 36.0588 139.47 35.9267 139.528L32.4757 141.052C32.3237 141.119 32.1935 141.227 32.0998 141.365C32.006 141.502 31.9526 141.663 31.9454 141.83C31.9382 141.996 31.9775 142.161 32.059 142.306C32.1405 142.451 32.2609 142.57 32.4065 142.65L35.7121 144.469C35.8387 144.538 35.9464 144.638 36.0261 144.758C36.1058 144.879 36.155 145.017 36.1693 145.161L36.5489 148.922C36.5656 149.088 36.6281 149.245 36.7295 149.377C36.8309 149.509 36.9671 149.61 37.1227 149.668C37.2782 149.726 37.4469 149.74 37.6097 149.707C37.7725 149.674 37.9228 149.596 38.0437 149.482L40.7913 146.892C40.8964 146.793 41.024 146.721 41.163 146.683C41.3021 146.644 41.4484 146.64 41.5894 146.671L45.2751 147.471C45.4375 147.506 45.6064 147.496 45.7628 147.44C45.9193 147.384 46.057 147.285 46.1603 147.155C46.2637 147.024 46.3286 146.868 46.3477 146.702C46.3668 146.537 46.3393 146.369 46.2684 146.219L44.6602 142.8C44.5988 142.669 44.57 142.525 44.5764 142.381C44.5827 142.236 44.624 142.095 44.6966 141.97L46.5947 138.704C46.6783 138.561 46.72 138.396 46.7153 138.23C46.7106 138.064 46.6595 137.902 46.5679 137.763C46.4763 137.624 46.3478 137.514 46.1969 137.445C46.046 137.375 45.8789 137.35 45.7142 137.371" fill="#FFCC00"/>
<path d="M138.087 141.375L134.483 139.279C134.343 139.196 134.226 139.078 134.143 138.938C134.059 138.797 134.012 138.638 134.005 138.475L133.763 134.087C133.758 133.898 133.698 133.715 133.589 133.561C133.481 133.407 133.33 133.288 133.155 133.219C132.979 133.151 132.787 133.136 132.604 133.176C132.42 133.216 132.252 133.31 132.121 133.446L128.928 136.492C128.811 136.607 128.668 136.692 128.51 136.738C128.353 136.785 128.187 136.792 128.026 136.759L123.949 135.855C123.761 135.823 123.567 135.843 123.389 135.912C123.211 135.981 123.054 136.096 122.935 136.246C122.815 136.395 122.738 136.574 122.711 136.764C122.684 136.954 122.707 137.147 122.78 137.324L124.41 141.304C124.472 141.46 124.497 141.629 124.483 141.797C124.469 141.966 124.417 142.128 124.33 142.273L122.052 146.102C121.945 146.259 121.885 146.442 121.879 146.632C121.873 146.821 121.921 147.008 122.018 147.171C122.115 147.334 122.256 147.466 122.425 147.551C122.594 147.637 122.783 147.672 122.971 147.652L127.172 147.064C127.33 147.041 127.492 147.06 127.642 147.118C127.791 147.176 127.923 147.272 128.024 147.397L130.692 150.668C130.819 150.809 130.983 150.911 131.165 150.963C131.347 151.015 131.54 151.014 131.722 150.96C131.904 150.907 132.067 150.803 132.192 150.66C132.317 150.518 132.4 150.343 132.43 150.155L133.395 145.813C133.432 145.648 133.505 145.494 133.61 145.361C133.715 145.229 133.849 145.123 134.002 145.05L137.929 143.242C138.103 143.164 138.253 143.041 138.364 142.884C138.474 142.728 138.541 142.546 138.557 142.355C138.572 142.164 138.537 141.973 138.454 141.801C138.37 141.628 138.243 141.482 138.084 141.376" fill="#FFCC00"/>
<path d="M62.618 28.55C61.5354 26.234 60.0516 24.129 58.2354 22.3327C56.3719 20.4818 54.2591 18.9016 51.9585 17.6381C47.2373 15.0536 41.938 13.7149 36.5588 13.7477C35.6989 13.7376 34.8407 13.8233 33.9997 14.003C33.4259 14.123 32.8903 14.3824 32.44 14.7586C32.0648 15.0907 31.7971 15.5276 31.6711 16.0132C31.5243 16.6169 31.4396 17.2341 31.4183 17.8551L31.4595 22.0494C31.3415 23.6781 31.2359 25.3734 31.1429 27.1355C31.0499 28.8882 31.0121 30.5586 31.0295 32.1468C31.0362 32.7929 31.0641 33.3777 31.1144 33.9041C31.1647 34.4305 31.1896 34.7503 31.1902 34.867L31.3539 37.9987C31.4542 39.3255 31.5656 40.6464 31.6881 41.9615C31.8075 43.2343 31.8525 44.513 31.8227 45.7911C31.8413 47.7051 31.8175 49.6764 31.7512 51.7051C31.6849 53.7216 31.662 55.7128 31.6826 57.6786C31.6919 58.6038 31.7121 59.5259 31.7432 60.445C31.7626 61.2292 31.8234 62.0118 31.9252 62.7896L32.0665 64.3178L32.4164 74.9623C32.468 76.1507 32.9191 76.922 33.7699 77.2849C34.8539 77.6911 36.0019 77.8987 37.1591 77.8977C37.492 77.9117 37.8256 77.8971 38.1561 77.8539C38.4522 77.8104 38.7442 77.7425 39.0293 77.6509C39.3199 77.5569 39.6535 77.4519 40.0298 77.336C40.4062 77.2201 40.908 77.0945 41.535 76.9591C42.6869 76.7176 43.8158 76.3765 44.909 75.9397C46.0834 75.4772 47.232 74.9515 48.3497 74.3647C49.4817 73.7698 50.5781 73.1319 51.639 72.4511C52.6998 71.7703 53.6902 71.1219 54.6104 70.5059C56.5093 69.0948 58.1796 67.3983 59.5622 65.4764C60.9149 63.5624 62.0266 61.4882 62.872 59.301C63.7904 56.9168 64.4886 54.4531 64.9575 51.9409C65.4928 49.0966 65.8796 46.2261 66.1164 43.3413C66.1244 43.1951 66.1417 43.0495 66.1685 42.9055C66.2014 42.7029 66.2217 42.4985 66.2291 42.2934C66.2304 40.0611 65.9035 37.8408 65.2589 35.704C64.5593 33.254 63.6786 30.8597 62.624 28.5409L62.618 28.55ZM53.6104 46.3132C53.5483 48.1592 53.2286 49.9874 52.6607 51.7446C52.1125 53.5458 51.3494 55.2742 50.3879 56.892C49.5819 58.2881 48.5105 59.5121 47.2346 60.4949C46.7486 60.9051 46.1702 61.1905 45.5494 61.3262C44.9286 61.462 44.2842 61.4442 43.6719 61.2742L44.3541 42.339C44.4091 41.073 44.4293 40.0625 44.4148 39.3075C44.4002 38.5525 44.3844 37.8249 44.3675 37.1246C44.3509 36.4235 44.3349 35.6917 44.3196 34.929C44.3042 34.1663 44.302 33.1329 44.3129 31.8288L44.3414 28.5232C44.883 28.7191 45.4566 28.8111 46.0321 28.7943C46.5868 28.7576 47.1368 28.9169 47.5863 29.2448L48.2606 29.6052C49.0324 30.0586 49.6857 30.6893 50.1666 31.4453C50.7748 32.3331 51.3025 33.2738 51.7433 34.2561C52.1988 35.2688 52.5623 36.3206 52.8293 37.3988C53.0752 38.3316 53.2241 39.2874 53.2738 40.2509C53.3548 40.8137 53.3986 41.3813 53.4048 41.9499C53.4101 42.5161 53.4537 43.0813 53.5352 43.6416L53.634 45.1953L53.6104 46.3132Z" fill="#FFCC00"/>
<path d="M88.8736 60.0335C88.4808 61.2085 88.1523 62.4042 87.8894 63.6151C87.571 64.3774 87.3182 64.9785 87.1332 65.4126C86.9874 65.7395 86.861 66.0748 86.7548 66.4168C86.6881 66.649 86.6362 66.8429 86.599 66.9985C86.5564 67.1788 86.525 67.3615 86.505 67.5456C86.3746 67.8977 86.2916 68.2657 86.2582 68.6398C86.1542 69.2942 86.292 69.9643 86.6457 70.5242C86.7913 70.7669 86.9926 70.9712 87.2331 71.12C87.4735 71.2688 87.7459 71.3578 88.0276 71.3795C88.5832 71.3814 89.1369 71.4426 89.6795 71.5618C90.2748 71.6857 90.8817 71.7448 91.4896 71.7381C92.3963 71.7191 93.2873 71.4968 94.0972 71.0877C94.9667 70.6575 95.6378 69.9086 95.9716 68.996L99.1025 58.6792L99.4779 57.4634C100.137 57.4808 100.792 57.5711 101.432 57.7327C102.133 57.9021 102.852 57.9935 103.574 58.005C103.999 58.0128 104.425 57.9884 104.847 57.9321C105.314 57.8737 106.032 57.74 106.999 57.5309C107.047 58.758 107.128 60.1468 107.242 61.6973C107.355 63.2591 107.454 64.6724 107.539 65.9372L107.669 68.5832C107.649 68.8793 107.635 69.2008 107.629 69.5467C107.624 69.8926 107.703 70.1169 107.872 70.2154C108.062 70.4878 108.343 70.6833 108.664 70.7667C109.062 70.8943 109.47 70.99 109.883 71.053C110.33 71.1234 110.782 71.1561 111.234 71.1509L112.429 71.1387C113.037 71.1306 113.645 71.0877 114.248 71.0105C114.73 70.9813 115.199 70.8394 115.617 70.5959C116.049 70.4269 116.459 70.2037 116.836 69.9315C116.964 69.8117 117.065 69.6656 117.132 69.5031C117.199 69.3406 117.23 69.1655 117.223 68.9899C117.238 68.5276 117.177 68.0659 117.041 67.624L116.923 66.9803C116.815 66.5685 116.728 66.1516 116.662 65.7311C116.602 65.3293 116.529 64.9141 116.452 64.4886L113.42 47.4433L111.972 38.9209C111.88 38.3633 111.813 37.9136 111.772 37.572C111.73 37.2304 111.688 36.8902 111.647 36.5514C111.606 36.2126 111.576 35.9377 111.557 35.7265C111.391 34.377 111.169 32.9674 110.89 31.4976C110.611 30.0362 110.332 28.6225 110.051 27.2564C109.897 26.5873 109.781 25.9101 109.703 25.228C109.648 24.6679 109.514 24.1185 109.306 23.5958C109.111 23.1186 108.774 22.7129 108.341 22.4336C107.721 22.0828 107.031 21.873 106.321 21.819C105.491 21.7005 104.654 21.6335 103.815 21.6184C103.322 21.5954 102.831 21.7001 102.39 21.9223C102.027 22.1468 101.749 22.4853 101.597 22.8852C101.41 23.331 101.199 23.9283 100.965 24.6772C100.476 26.0222 100.048 27.3973 99.6816 28.8022C99.3109 30.2206 98.8898 31.6147 98.4185 32.9844L97.6841 34.7351L96.5126 37.6638C96.2845 38.5339 96.0298 39.4052 95.7485 40.2777C95.4655 41.1583 95.1366 42.0403 94.7618 42.9237L89.7475 56.8987C89.5222 57.9627 89.2328 59.012 88.8809 60.0408L88.8736 60.0335ZM104.293 36.0967C104.534 36.9053 104.715 37.7309 104.833 38.5665C104.984 39.5553 105.11 40.5684 105.21 41.6059C105.311 42.6433 105.389 43.654 105.446 44.6379C105.502 45.6231 105.537 46.4753 105.549 47.1946L102.071 46.9971L104.293 36.0967Z" fill="#FFCC00"/>
<path d="M132.1 62.5829C131.816 62.8213 131.5 63.017 131.161 63.164C130.859 63.3048 130.53 63.3786 130.197 63.3804C129.871 63.3756 129.55 63.3009 129.256 63.1616L127.908 62.6643L125.604 61.7385C125.504 61.6896 125.395 61.664 125.284 61.6638L124.915 61.6553C124.74 61.6412 124.564 61.6725 124.404 61.7462C124.243 61.8198 124.105 61.9333 124.001 62.0759C123.761 62.4351 123.59 62.8367 123.499 63.2594C123.374 63.7603 123.255 64.3074 123.142 64.9007C123.031 65.4898 122.87 66.0683 122.661 66.6301L122.237 67.8866C122.058 68.4111 121.943 68.9555 121.895 69.5078C121.877 69.7692 121.922 70.0312 122.026 70.2717C122.13 70.5122 122.29 70.7242 122.492 70.8901C122.9 71.2375 123.356 71.5226 123.846 71.7362C124.273 71.9287 124.721 72.0685 125.18 72.1526C125.585 72.2203 125.772 72.2541 125.743 72.2541C126.331 72.7079 126.997 73.0497 127.708 73.2626C128.309 73.4206 128.871 73.5436 129.393 73.6316C129.951 73.7552 130.52 73.8187 131.091 73.8212C131.867 73.8179 132.636 73.6778 133.364 73.4073C134.048 73.1466 134.708 72.826 135.337 72.4493C135.629 72.2815 135.91 72.0953 136.178 71.8918C136.56 71.6147 136.926 71.3616 137.276 71.1326L137.93 70.6536C138.161 70.4725 138.464 70.2348 138.839 69.9406C139.16 69.6994 139.448 69.4169 139.695 69.1005C140.054 68.605 140.33 68.0544 140.512 67.4702C140.753 66.7601 140.95 66.0357 141.102 65.3013C141.26 64.551 141.377 63.7927 141.453 63.0297C141.521 62.4 141.555 61.7671 141.554 61.1337C141.555 59.0717 141.224 57.023 140.572 55.0671C139.943 53.266 139.025 51.58 137.853 50.0759L135.232 47.2797C134.955 46.977 134.691 46.6747 134.441 46.3728C134.191 46.0708 133.927 45.7683 133.649 45.4652L133.691 45.4682C133.219 45.0092 132.786 44.5103 132.398 43.9771C132.085 43.5407 131.814 43.0744 131.591 42.5851C131.39 42.1421 131.22 41.6862 131.08 41.2204C130.945 40.7698 130.811 40.28 130.679 39.7512L130.365 38.2382C130.384 37.7763 130.537 37.3299 130.804 36.9532C131.05 36.616 131.367 36.3376 131.733 36.138C132.102 35.9392 132.502 35.803 132.916 35.735C133.316 35.6633 133.724 35.6463 134.129 35.6845C134.266 35.6989 134.403 35.7224 134.537 35.755C134.675 35.7894 134.811 35.832 134.944 35.8827C135.235 35.9886 135.533 36.0765 135.835 36.1459C136.136 36.2157 136.432 36.3032 136.722 36.4079L138.126 36.8334C139.208 34.6469 139.795 32.2482 139.845 29.8082C139.842 29.5363 139.776 29.2688 139.653 29.0264C139.53 28.784 139.353 28.5731 139.136 28.4101C138.635 28.0061 138.067 27.6941 137.458 27.4886C136.791 27.2559 136.107 27.0764 135.412 26.9518C134.699 26.8238 134.102 26.7285 133.622 26.6661C132.687 26.5493 131.74 26.577 130.813 26.7482C129.839 26.9225 128.895 27.2382 128.012 27.6855C127.101 28.1464 126.269 28.7483 125.545 29.469C124.791 30.2188 124.188 31.1073 123.769 32.0859C123.29 33.3468 122.881 34.633 122.543 35.9386C121.719 39.2249 121.82 42.6757 122.835 45.9077C123.425 47.9174 124.449 49.7723 125.835 51.3403C126.329 51.8379 126.779 52.2894 127.185 52.6946C127.592 53.0999 128.071 53.5517 128.622 54.0502L130.445 55.8738C131.05 56.2992 131.559 56.8482 131.938 57.4847C132.466 58.444 132.806 59.4966 132.936 60.5848C132.994 60.9646 132.937 61.3529 132.773 61.7002C132.618 62.0387 132.39 62.339 132.106 62.5798" fill="#FFCC00"/>
<path d="M9.88835 78.387L14.4061 79.1578C14.5789 79.1873 14.7419 79.2585 14.8812 79.3653C15.0204 79.472 15.1317 79.6111 15.2053 79.7706L17.1331 83.9387C17.2178 84.1227 17.3521 84.2793 17.521 84.3906C17.6899 84.5019 17.8866 84.5635 18.0886 84.5684C18.2907 84.5733 18.4901 84.5214 18.6642 84.4185C18.8383 84.3156 18.9801 84.1658 19.0736 83.9862L21.2015 79.9171C21.2828 79.7615 21.4006 79.6281 21.5448 79.5283C21.689 79.4286 21.8553 79.3655 22.0293 79.3444L26.5773 78.7974C26.7777 78.7732 26.9674 78.6933 27.1248 78.5668C27.2823 78.4402 27.4012 78.272 27.4682 78.0811C27.5352 77.8903 27.5476 77.6845 27.504 77.4869C27.4603 77.2894 27.3625 77.108 27.2213 76.9634L24.0182 73.6779C23.8957 73.5522 23.8057 73.3985 23.7556 73.2301C23.7055 73.0618 23.697 72.8837 23.7308 72.7113L24.6149 68.2034C24.6539 68.0049 24.6367 67.7994 24.5653 67.6103C24.4938 67.4211 24.3709 67.2557 24.2106 67.1329C24.0503 67.0101 23.8589 66.9347 23.658 66.9152C23.4572 66.8958 23.2549 66.9331 23.0741 67.0229L18.9669 69.0611C18.8098 69.1391 18.6361 69.1776 18.4608 69.1734C18.2856 69.1691 18.114 69.1223 17.9609 69.0368L13.9585 66.801C13.7823 66.7026 13.5821 66.6555 13.3806 66.6652C13.1791 66.6748 12.9843 66.7408 12.8182 66.8557C12.6522 66.9705 12.5215 67.1297 12.4409 67.3151C12.3604 67.5005 12.3332 67.7048 12.3625 67.9049L13.0295 72.4506C13.0549 72.6244 13.0377 72.8018 12.9795 72.9675C12.9213 73.1332 12.8238 73.2823 12.6954 73.4019L9.33346 76.5239C9.1855 76.6615 9.0789 76.8379 9.02574 77.033C8.97258 77.2282 8.97495 77.4344 9.03263 77.6282C9.0903 77.8221 9.201 77.9959 9.35212 78.13C9.50323 78.2641 9.68871 78.3532 9.88768 78.387" fill="#FFCC00"/>
<path d="M148.28 75.8942L152.856 76.1373C153.032 76.1468 153.202 76.1987 153.352 76.2887C153.503 76.3787 153.63 76.5041 153.721 76.654L156.115 80.5712C156.221 80.7437 156.372 80.8832 156.553 80.9739C156.733 81.0646 156.935 81.1029 157.136 81.0844C157.337 81.066 157.529 80.9915 157.69 80.8694C157.851 80.7473 157.974 80.5825 158.047 80.3937L159.693 76.1064C159.755 75.9423 159.857 75.7961 159.989 75.6803C160.121 75.5644 160.279 75.4824 160.449 75.4413L164.906 74.3697C165.102 74.3224 165.281 74.221 165.423 74.077C165.565 73.9331 165.663 73.7522 165.708 73.5549C165.753 73.3576 165.741 73.1518 165.675 72.9606C165.609 72.7694 165.491 72.6006 165.335 72.4731L161.775 69.5796C161.639 69.4689 161.532 69.3266 161.463 69.1652C161.393 69.0037 161.365 68.8278 161.378 68.6526L161.739 64.0729C161.754 63.8713 161.714 63.6692 161.621 63.4895C161.528 63.3099 161.387 63.1598 161.214 63.0564C161.04 62.9529 160.842 62.9001 160.64 62.904C160.438 62.9079 160.241 62.9683 160.072 63.0784L156.227 65.5774C156.08 65.6731 155.912 65.7316 155.737 65.7477C155.562 65.7638 155.386 65.737 155.224 65.6698L150.991 63.9106C150.804 63.8333 150.6 63.8098 150.401 63.8427C150.202 63.8756 150.016 63.9637 149.864 64.0969C149.713 64.2301 149.601 64.4032 149.542 64.5966C149.483 64.79 149.48 64.996 149.532 65.1914L150.715 69.6289C150.76 69.7987 150.763 69.977 150.725 70.1485C150.686 70.3199 150.606 70.4793 150.492 70.613L147.515 74.1058C147.384 74.2596 147.299 74.4471 147.268 74.6471C147.238 74.847 147.264 75.0515 147.343 75.2374C147.423 75.4233 147.553 75.5832 147.718 75.6989C147.884 75.8147 148.078 75.8817 148.28 75.8924" fill="#FFCC00"/>
<path d="M70.8251 17.1062C71.0208 17.2924 71.1686 17.5234 71.2555 17.7795C71.3425 18.0355 71.366 18.3089 71.3242 18.5761L70.2284 25.563C70.1801 25.8706 70.2187 26.1856 70.3397 26.4723C70.4607 26.7591 70.6594 27.0062 70.9132 27.1857C71.1671 27.3652 71.4659 27.4699 71.776 27.488C72.0861 27.5061 72.3951 27.4369 72.668 27.2881L78.8667 23.9102C79.1038 23.7811 79.3686 23.7117 79.6384 23.708C79.9082 23.7042 80.1749 23.7663 80.4155 23.8889L86.7057 27.0924C86.9826 27.2336 87.2935 27.2942 87.603 27.2675C87.9126 27.2408 88.2085 27.1278 88.4573 26.9413C88.7061 26.7548 88.8978 26.5022 89.0108 26.2121C89.1238 25.922 89.1536 25.6059 89.0968 25.2998L87.8076 18.3463C87.7582 18.0803 87.7741 17.8063 87.8538 17.5478C87.9336 17.2893 88.0748 17.0541 88.2654 16.8625L93.2489 11.8561C93.4683 11.6357 93.6219 11.3581 93.6922 11.0548C93.7625 10.7515 93.7468 10.4345 93.6467 10.1397C93.5466 9.84491 93.3662 9.58407 93.1259 9.38668C92.8857 9.18929 92.5952 9.06323 92.2871 9.02276L85.2916 8.10305C85.024 8.06791 84.7688 7.96803 84.5483 7.81205C84.3277 7.65606 84.1482 7.44863 84.0254 7.20765L80.8151 0.909489C80.6737 0.632182 80.4579 0.40005 80.1918 0.239352C79.9257 0.0786529 79.62 -0.00420017 79.3094 0.000163922C78.9988 0.00452801 78.6955 0.0959352 78.4341 0.264046C78.1726 0.432157 77.9632 0.670263 77.8297 0.951432L74.7977 7.33409C74.6816 7.57836 74.508 7.79066 74.2919 7.95269C74.0757 8.11471 73.8235 8.2216 73.557 8.26414L66.5899 9.37837C66.2836 9.42766 65.997 9.56182 65.7627 9.76568C65.5284 9.96955 65.3556 10.235 65.2638 10.5321C65.1719 10.8292 65.1648 11.1461 65.2431 11.4471C65.3214 11.7481 65.4821 12.0211 65.707 12.2354L70.8251 17.1062Z" fill="#FFCC00"/>
</svg>
